Coordinates
version=1
nRows=20
nColumns=34
inDegrees=yes

Units are S.I. units (second, meters, Newtons, ...)
If the header above contains a line with 'inDegrees', this indicates whether rotational values are in degrees (yes) or radians (no).

endheader
time	pelvis_tilt	pelvis_list	pelvis_rotation	pelvis_tx	pelvis_ty	pelvis_tz	hip_flexion_r	hip_adduction_r	hip_rotation_r	knee_angle_r	ankle_angle_r	subtalar_angle_r	mtp_angle_r	hip_flexion_l	hip_adduction_l	hip_rotation_l	knee_angle_l	ankle_angle_l	subtalar_angle_l	mtp_angle_l	lumbar_extension	lumbar_bending	lumbar_rotation	arm_flex_r	arm_add_r	arm_rot_r	elbow_flex_r	pro_sup_r	arm_flex_l	arm_add_l	arm_rot_l	elbow_flex_l	pro_sup_l
     10.23333330	     29.75291295	      8.68426877	      0.26759858	      0.04540928	      0.48159184	     -0.00749571	     62.84499902	      0.78608036	      4.82631594	     47.29735456	    -10.81394730	    -18.86147793	      0.00000000	     56.20030919	     -4.90448681	    -25.64229532	     47.35119641	    -14.30034440	      0.99585016	      0.00000000	    -52.46316528	      4.07219022	     13.72395385	     89.97054012	    -43.24688571	     47.70663573	     48.37469054	     75.19910316	    141.30932784	     -4.18051720	     94.15173269	     42.24466570	     54.09625208
     10.25000000	     28.52123070	      9.30384044	      0.41175889	      0.04990115	      0.48100982	     -0.00721361	     64.54305932	      0.59376333	      6.01032326	     48.99299705	     -9.82405701	    -18.84160654	      0.00000000	     57.62044088	     -4.86303009	    -25.98090248	     48.67940957	    -14.23634372	      0.63534521	      0.00000000	    -51.56060603	      4.58634235	     14.38908990	     92.15298034	    -41.62705323	     48.01721966	     45.16508558	     73.63905508	    141.07328340	     -6.61220804	     88.79705903	     46.48752803	     53.85465669
     10.26666670	     27.27315698	     10.07484285	      1.01965208	      0.06117664	      0.47796714	     -0.01519547	     66.76098557	     -0.28954872	      6.63557445	     51.19548896	     -8.71677550	    -19.44416067	      0.00000000	     59.87803638	     -4.04980092	    -26.00028607	     50.74310682	    -14.42158484	     -1.53137209	      0.00000000	    -50.69059861	      4.70863100	     15.06350065	     92.91412997	    -42.29914467	     47.72169130	     44.38968929	     73.23246221	    141.96559607	     -6.27822126	     87.86873101	     48.04403278	     54.19511502
     10.28333330	     26.82778630	     10.24734437	      1.02508111	      0.04879150	      0.47332840	     -0.00552786	     68.08818721	      0.11496535	      7.15704691	     52.45746851	     -8.96166450	    -20.71955047	      0.00000000	     60.55220677	     -4.38762798	    -26.25586608	     51.29437951	    -14.30088209	     -1.36931465	      0.00000000	    -51.49668638	      4.89896437	     15.39120866	     94.81747170	    -40.47881050	     46.81550389	     43.80664719	     71.57113627	    143.61424270	     -7.62355928	     85.59168399	     50.77904978	     55.18107529
     10.30000000	     27.78309747	     10.18618544	      0.84398518	      0.02289917	      0.47016999	      0.00879320	     66.83988150	      0.94347652	      7.46122545	     50.68926953	    -10.81492153	    -22.09560537	      0.00000000	     59.40378424	     -4.64183322	    -25.91128728	     49.68198304	    -15.96782827	     -1.36916610	      0.00000000	    -54.99811938	      4.78184782	     14.71555452	    100.22772600	    -35.31051884	     49.86627582	     37.61576681	     69.91085229	    148.58926282	     -8.54317332	     88.60744140	     50.59961822	     56.09584233
     10.31666670	     27.60797440	     10.29350643	      1.14778707	      0.04550341	      0.47569289	      0.00551943	     66.82012938	      1.18399250	      7.44185367	     50.99674438	    -11.00411552	    -23.10557613	      0.00000000	     59.24501105	     -4.90828551	    -25.96858978	     49.24954593	    -16.92061803	     -1.17205432	      0.00000000	    -57.24905081	      4.98133661	     14.03126976	    102.73242129	    -33.08204976	     50.00477628	     37.24060383	     67.13595096	    153.59674116	    -10.75201811	     91.40184633	     54.93498569	     55.56481257
     10.33333330	     26.62168081	     10.41743774	      1.11829250	      0.05738277	      0.47748140	      0.00155828	     67.60628219	      1.39926996	      7.53831706	     51.93873075	    -10.71215116	    -23.71012869	      0.00000000	     59.89865195	     -5.47434880	    -26.55710234	     49.66332547	    -17.41555177	     -0.65687514	      0.00000000	    -57.46668297	      4.83592085	     15.50205685	    103.42974919	    -33.25551335	     49.64490864	     36.23026619	     66.91732309	    154.68762588	     -9.90749009	     91.03623477	     55.63421908	     55.46856209
     10.35000000	     25.87633756	     10.47341754	      1.12648945	      0.05372875	      0.46994268	      0.00248723	     68.05117211	      1.29962283	      7.49750994	     51.71043304	     -9.58684679	    -23.50125180	      0.00000000	     61.35158172	     -5.89442693	    -26.79255780	     50.60702727	    -17.47942328	     -0.34021758	      0.00000000	    -57.58183460	      4.92400083	     16.70203452	    104.02990694	    -31.91476180	     48.60306212	     33.23141511	     65.12925029	    154.86679627	     -9.47122538	     90.57083084	     56.80326628	     54.50292746
     10.36666670	     25.41560310	     10.54576774	      1.38563694	      0.05249038	      0.46659469	      0.00571103	     68.62530460	      1.19261248	      7.63221165	     51.97961270	     -8.66316607	    -23.93636302	      0.00000000	     62.34879426	     -6.05370421	    -26.77376382	     51.34466704	    -17.55652967	     -0.02446794	      0.00000000	    -58.36127611	      4.97716825	     17.55022735	    104.86115298	    -31.58450044	     48.37807545	     32.72351095	     64.92156251	    155.71478741	     -8.56297941	     90.17575343	     57.02670941	     54.39837619
     10.38333330	     25.07210236	     10.53926706	      1.86185275	      0.06176902	      0.47006127	     -0.00119702	     69.61754206	      0.62100201	      7.76244319	     53.42564767	     -8.10823570	    -24.52505186	      0.00000000	     63.03732757	     -5.81199226	    -26.91018474	     51.93072233	    -16.84186658	      0.25118380	      0.00000000	    -58.88622998	      5.57312904	     18.92978272	    105.35497070	    -31.26828861	     47.97610277	     29.22004047	     63.35996228	    155.22081261	     -6.66965322	     89.50411110	     56.78492103	     53.58885718
     10.40000000	     23.95013443	     10.83777053	      2.88069341	      0.07115833	      0.46982861	      0.00026575	     71.09234262	     -0.21829316	      8.16022221	     54.43413289	     -7.57293209	    -25.79074191	      0.00000000	     64.82768436	     -5.69385611	    -27.27100990	     53.77753522	    -14.76367739	      0.09987182	      0.00000000	    -58.59330527	      5.92489144	     19.71233429	    104.00386914	    -31.84741019	     45.77789563	     28.86947855	     60.56766942	    153.52258333	     -4.80901641	     85.45906686	     56.61425186	     52.58948906
     10.41666670	     23.04742715	     10.96055994	      3.30733449	      0.07043950	      0.46495440	     -0.00376703	     72.77975726	     -0.71560902	      8.43384128	     55.61795932	     -7.49151109	    -26.32000248	      0.00000000	     66.51004042	     -5.53525941	    -27.54451278	     54.83546170	    -10.40030427	      1.23302531	      0.00000000	    -58.88510777	      5.85777176	     19.74467244	    103.40047636	    -31.80561843	     45.49099659	     28.36286722	     60.25184734	    153.86439205	     -2.95533749	     84.39603832	     57.01497832	     52.56805886
     10.43333330	     21.29593176	     10.90797086	      3.22325679	      0.07855241	      0.46320659	     -0.00419588	     75.53641787	     -0.54728864	      8.78211391	     56.78061463	     -8.76800340	    -26.61934441	      0.00000000	     68.26135127	     -6.00657215	    -28.07522800	     55.06534807	     -6.42368764	      3.25482476	      0.00000000	    -57.81395120	      5.74241565	     22.02722825	    100.81837350	    -33.83694310	     41.04861576	     28.59329834	     57.78468665	    149.27165349	      0.38812237	     75.72311612	     55.41044541	     52.72813756
     10.45000000	     20.82230371	     10.74722152	      3.09908219	      0.06070722	      0.45717165	     -0.00477983	     76.02915921	     -0.70186870	      8.81642784	     56.02514869	     -9.37727604	    -26.09666975	      0.00000000	     68.81623176	     -5.68969330	    -27.65754735	     54.69945517	     -3.86101540	      4.71637777	      0.00000000	    -59.56324778	      5.63117730	     22.44226045	    101.44619563	    -33.70075306	     40.70300075	     28.22726113	     57.50277131	    150.15086797	      2.34911779	     73.90580937	     54.41291302	     53.24699498
     10.46666670	     20.15805553	     10.90401351	      2.76462745	      0.05666389	      0.45974081	     -0.00379760	     75.98411107	     -0.93292778	      8.83549991	     54.14233143	    -10.31297898	    -25.40625041	      0.00000000	     69.12143616	     -5.23006602	    -27.32347327	     53.13234470	     -4.56377433	      3.65906296	      0.00000000	    -60.88878362	      5.18751186	     23.01072418	    100.86434575	    -34.11721509	     39.86826500	     28.00225135	     56.48501698	    149.62966373	      4.72262525	     69.75946593	     52.22402491	     55.29568961
     10.48333330	     19.00335377	     10.93951203	      2.72683512	      0.06712761	      0.45883632	     -0.00268812	     77.31386950	     -0.88042177	      8.50354522	     54.65501357	    -10.01182446	    -24.58678592	      0.00000000	     70.49072405	     -5.39726425	    -26.83760681	     53.18871428	     -4.76762157	      3.82658825	      0.00000000	    -61.55524180	      5.20550370	     23.28478663	     99.05256446	    -34.31919141	     38.04763748	     28.56560338	     55.71753864	    148.38474144	      6.06654548	     65.45781092	     52.49712798	     56.71934309
     10.50000000	     18.20509606	     10.91363852	      3.03366496	      0.07885799	      0.44986250	     -0.00506996	     79.10316815	     -0.80430714	      8.54510925	     56.45470583	    -10.20790727	    -25.18350976	      0.00000000	     72.16457200	     -5.58151378	    -26.67483430	     53.96365561	     -4.52636461	      4.20422957	      0.00000000	    -61.74015965	      5.60424463	     22.56346942	     94.77671382	    -33.97644543	     33.30722321	     30.94994992	     55.22104076	    146.68444711	      7.12013404	     61.04741147	     53.32623583	     59.19147431
     10.51666670	     17.67429286	     10.81606192	      3.38195941	      0.07736508	      0.44443708	      0.00021517	     80.62079837	     -0.42119075	      8.68697708	     58.12105687	    -10.21567672	    -25.30206386	      0.00000000	     73.51042054	     -5.78546209	    -26.23992334	     54.77437219	     -5.04771415	      3.58298751	      0.00000000	    -62.28806863	      5.79488252	     21.30991621	     89.97041596	    -32.63214902	     28.70733596	     33.11607123	     55.54229503	    145.20226591	      7.62585020	     57.77003887	     55.61222767	     60.90777167
     10.53333330	     18.03182508	     10.44293751	      3.86456466	      0.07144309	      0.45093562	      0.00443221	     79.93204243	     -0.56455170	      8.45419776	     57.57105952	    -10.43624164	    -25.01458752	      0.00000000	     73.09808289	     -5.80582623	    -25.74431092	     54.57733915	     -5.73292511	      4.10988253	      0.00000000	    -64.12596338	      6.62875699	     19.98156421	     86.72314085	    -30.78362065	     28.57299164	     33.69908529	     55.73181034	    144.25490364	      7.97462415	     57.28628411	     55.12330848	     61.08169866
     10.55000000	     16.79986401	     10.51703801	      4.08098569	      0.08792270	      0.45321372	     -0.00070056	     80.94129069	     -0.85802695	      7.94160709	     58.26178476	     -9.66221807	    -25.24461281	      0.00000000	     74.34014929	     -5.97102396	    -25.81726410	     55.65554994	     -4.46629510	      5.08797688	      0.00000000	    -63.47955967	      6.54168121	     19.99454869	     77.58063217	    -30.80792935	     16.21216002	     39.07909759	     58.36855036	    139.55105872	     10.41931303	     51.92414133	     57.25020002	     64.07149375
